<?xml version="1.0" standalone="no"?>
<!DOCTYPE svg PUBLIC "-//W3C//DTD SVG 20010904//EN"
 "http://www.w3.org/TR/2001/REC-SVG-20010904/DTD/svg10.dtd">
<svg version="1.0" xmlns="http://www.w3.org/2000/svg"
 width="225.000000pt" height="225.000000pt" viewBox="0 0 225.000000 225.000000"
 preserveAspectRatio="xMidYMid meet">

<g transform="translate(0.000000,225.000000) scale(0.100000,-0.100000)"
fill="#000000" stroke="none">
<path d="M2070 2036 c-36 -13 -171 -64 -300 -114 -444 -170 -1445 -553 -1577
-604 -73 -27 -144 -61 -158 -74 -30 -27 -32 -64 -6 -88 10 -9 141 -55 290
-102 l272 -85 37 23 c20 12 285 177 587 366 303 190 565 352 583 360 29 14 34
14 48 1 13 -14 1 -28 -113 -131 -160 -143 -836 -750 -842 -755 -7 -5 -43 -515
-37 -520 17 -18 75 24 198 142 77 74 143 135 148 135 4 0 124 -86 266 -190
148 -108 275 -194 296 -200 44 -12 77 -2 105 34 23 29 30 57 158 661 53 248
123 575 155 727 67 309 72 363 38 402 -33 37 -72 40 -148 12z"/>
</g>
</svg>
